<mxfile host="app.diagrams.net" modified="2020-04-27T10:13:28.251Z" agent="5.0 (Windows NT 10.0; Win64; x64) AppleWebKit/537.36 (KHTML, like Gecko) Chrome/81.0.4044.122 Safari/537.36 Edg/81.0.416.64" etag="Ks6ucPB59wB2VtbD83C6" version="13.0.2" type="github">
  <diagram id="Wjlq6OvhsPeZIdIwMFBR" name="Page-1">
    <mxGraphModel dx="1038" dy="-221" grid="0" gridSize="10" guides="1" tooltips="1" connect="1" arrows="1" fold="1" page="0" pageScale="1" pageWidth="850" pageHeight="1100" background="none" math="0" shadow="0">
      <root>
        <mxCell id="0" />
        <mxCell id="1" style="locked=1;" parent="0" />
        <mxCell id="B7zabrMZMzTyhiU8W4GD-2" value="Window Title" style="strokeWidth=1;shadow=0;dashed=0;align=center;html=1;shape=mxgraph.mockup.containers.window;align=left;verticalAlign=top;spacingLeft=8;strokeColor2=#008cff;strokeColor3=#c4c4c4;fontColor=#666666;mainText=;fontSize=17;labelBackgroundColor=none;" parent="1" vertex="1">
          <mxGeometry x="363" y="915" width="1010" height="592" as="geometry" />
        </mxCell>
        <mxCell id="DOF8AfZ6k_UKIpgoAxyM-2" value="Untitled Layer" style="" parent="0" />
        <mxCell id="DOF8AfZ6k_UKIpgoAxyM-42" value="" style="group" vertex="1" connectable="0" parent="DOF8AfZ6k_UKIpgoAxyM-2">
          <mxGeometry x="615" y="1263" width="687" height="140" as="geometry" />
        </mxCell>
        <mxCell id="DOF8AfZ6k_UKIpgoAxyM-43" value="Waterfall CY vs PY" style="text;html=1;resizable=0;autosize=1;align=left;verticalAlign=middle;points=[];fillColor=none;strokeColor=none;rounded=0;shadow=0;labelBackgroundColor=none;fontSize=16;" vertex="1" parent="DOF8AfZ6k_UKIpgoAxyM-42">
          <mxGeometry width="145" height="23" as="geometry" />
        </mxCell>
        <mxCell id="DOF8AfZ6k_UKIpgoAxyM-44" value="&lt;table cellpadding=&quot;4&quot; cellspacing=&quot;0&quot; style=&quot;font-size: 1em ; width: 100% ; height: 100% ; background-color: rgb(255 , 255 , 255) ; border: 1px solid rgb(26 , 26 , 26) ; border-collapse: collapse&quot; border=&quot;1&quot;&gt;&lt;tbody&gt;&lt;tr&gt;&lt;th&gt;&lt;span&gt;&lt;font color=&quot;#1a1a1a&quot;&gt;Header 1&lt;/font&gt;&lt;/span&gt;&lt;/th&gt;&lt;th&gt;&lt;span&gt;&lt;font color=&quot;#1a1a1a&quot;&gt;Header 2&lt;/font&gt;&lt;/span&gt;&lt;/th&gt;&lt;td&gt;&lt;span&gt;&lt;br&gt;&lt;/span&gt;&lt;/td&gt;&lt;td&gt;&lt;br&gt;&lt;/td&gt;&lt;td&gt;&lt;br&gt;&lt;/td&gt;&lt;/tr&gt;&lt;tr&gt;&lt;td&gt;row 1, cell 1&lt;/td&gt;&lt;td&gt;row 1, cell 2&lt;/td&gt;&lt;td&gt;&lt;br&gt;&lt;/td&gt;&lt;td&gt;&lt;br&gt;&lt;/td&gt;&lt;td&gt;&lt;br&gt;&lt;/td&gt;&lt;/tr&gt;&lt;tr&gt;&lt;td&gt;row 2, cell 1&lt;/td&gt;&lt;td&gt;row 2, cell 2&lt;/td&gt;&lt;td&gt;&lt;br&gt;&lt;/td&gt;&lt;td&gt;&lt;br&gt;&lt;/td&gt;&lt;td&gt;&lt;br&gt;&lt;/td&gt;&lt;/tr&gt;&lt;/tbody&gt;&lt;/table&gt; " style="verticalAlign=top;align=left;overflow=fill;fontSize=12;fontFamily=Helvetica;html=1;shadow=0;labelBackgroundColor=none;strokeColor=#B3B3B3;strokeWidth=1;fillColor=#999999;gradientColor=none;" vertex="1" parent="DOF8AfZ6k_UKIpgoAxyM-42">
          <mxGeometry y="57" width="687" height="83" as="geometry" />
        </mxCell>
        <mxCell id="DOF8AfZ6k_UKIpgoAxyM-45" value="" style="group" vertex="1" connectable="0" parent="DOF8AfZ6k_UKIpgoAxyM-2">
          <mxGeometry x="615" y="979" width="682" height="267" as="geometry" />
        </mxCell>
        <mxCell id="DOF8AfZ6k_UKIpgoAxyM-24" value="Waterfall CY" style="text;html=1;resizable=0;autosize=1;align=left;verticalAlign=middle;points=[];fillColor=none;strokeColor=none;rounded=0;shadow=0;labelBackgroundColor=none;fontSize=16;" vertex="1" parent="DOF8AfZ6k_UKIpgoAxyM-45">
          <mxGeometry width="99" height="23" as="geometry" />
        </mxCell>
        <mxCell id="DOF8AfZ6k_UKIpgoAxyM-25" value="" style="group" vertex="1" connectable="0" parent="DOF8AfZ6k_UKIpgoAxyM-45">
          <mxGeometry x="158.44444444444446" y="60" width="523.5555555555555" height="171" as="geometry" />
        </mxCell>
        <mxCell id="DOF8AfZ6k_UKIpgoAxyM-26" value="" style="rounded=0;whiteSpace=wrap;html=1;shadow=0;labelBackgroundColor=none;strokeColor=none;strokeWidth=1;fillColor=#999999;gradientColor=none;fontSize=16;align=left;fontColor=#000000;" vertex="1" parent="DOF8AfZ6k_UKIpgoAxyM-25">
          <mxGeometry width="523.5555555555555" height="19" as="geometry" />
        </mxCell>
        <mxCell id="DOF8AfZ6k_UKIpgoAxyM-27" value="" style="rounded=0;whiteSpace=wrap;html=1;shadow=0;labelBackgroundColor=none;strokeColor=none;strokeWidth=1;fillColor=#808080;gradientColor=none;fontSize=16;align=left;fontColor=#000000;" vertex="1" parent="DOF8AfZ6k_UKIpgoAxyM-25">
          <mxGeometry x="38.38095238095238" y="22" width="446.7936507936508" height="19" as="geometry" />
        </mxCell>
        <mxCell id="DOF8AfZ6k_UKIpgoAxyM-28" value="" style="rounded=0;whiteSpace=wrap;html=1;shadow=0;labelBackgroundColor=none;strokeColor=none;strokeWidth=1;fillColor=#808080;gradientColor=none;fontSize=16;align=left;fontColor=#000000;" vertex="1" parent="DOF8AfZ6k_UKIpgoAxyM-25">
          <mxGeometry x="45.269841269841265" y="43" width="433.015873015873" height="19" as="geometry" />
        </mxCell>
        <mxCell id="DOF8AfZ6k_UKIpgoAxyM-29" value="" style="rounded=0;whiteSpace=wrap;html=1;shadow=0;labelBackgroundColor=none;strokeColor=none;strokeWidth=1;fillColor=#666666;gradientColor=none;fontSize=16;align=left;fontColor=#000000;" vertex="1" parent="DOF8AfZ6k_UKIpgoAxyM-25">
          <mxGeometry x="51.17460317460317" y="65" width="421.2063492063491" height="19" as="geometry" />
        </mxCell>
        <mxCell id="DOF8AfZ6k_UKIpgoAxyM-30" value="" style="rounded=0;whiteSpace=wrap;html=1;shadow=0;labelBackgroundColor=none;strokeColor=none;strokeWidth=1;fillColor=#000000;gradientColor=none;fontSize=16;align=left;fontColor=#000000;" vertex="1" parent="DOF8AfZ6k_UKIpgoAxyM-25">
          <mxGeometry x="94.47619047619047" y="152" width="334.6031746031746" height="19" as="geometry" />
        </mxCell>
        <mxCell id="DOF8AfZ6k_UKIpgoAxyM-31" value="" style="rounded=0;whiteSpace=wrap;html=1;shadow=0;labelBackgroundColor=none;strokeColor=none;strokeWidth=1;fillColor=#1A1A1A;gradientColor=none;fontSize=16;align=left;fontColor=#000000;" vertex="1" parent="DOF8AfZ6k_UKIpgoAxyM-25">
          <mxGeometry x="74.79365079365078" y="130" width="373.9682539682539" height="19" as="geometry" />
        </mxCell>
        <mxCell id="DOF8AfZ6k_UKIpgoAxyM-32" value="" style="rounded=0;whiteSpace=wrap;html=1;shadow=0;labelBackgroundColor=none;strokeColor=none;strokeWidth=1;fillColor=#333333;gradientColor=none;fontSize=16;align=left;fontColor=#000000;" vertex="1" parent="DOF8AfZ6k_UKIpgoAxyM-25">
          <mxGeometry x="66.92063492063492" y="109" width="389.71428571428567" height="19" as="geometry" />
        </mxCell>
        <mxCell id="DOF8AfZ6k_UKIpgoAxyM-33" value="" style="rounded=0;whiteSpace=wrap;html=1;shadow=0;labelBackgroundColor=none;strokeColor=none;strokeWidth=1;fillColor=#4D4D4D;gradientColor=none;fontSize=16;align=left;fontColor=#000000;" vertex="1" parent="DOF8AfZ6k_UKIpgoAxyM-25">
          <mxGeometry x="54.12698412698413" y="87" width="415.3015873015873" height="19" as="geometry" />
        </mxCell>
        <mxCell id="DOF8AfZ6k_UKIpgoAxyM-34" value="Registration" style="text;html=1;resizable=0;autosize=1;align=left;verticalAlign=middle;points=[];fillColor=none;strokeColor=none;rounded=0;shadow=0;labelBackgroundColor=none;fontSize=11;" vertex="1" parent="DOF8AfZ6k_UKIpgoAxyM-45">
          <mxGeometry x="9.84126984126984" y="61" width="69" height="17" as="geometry" />
        </mxCell>
        <mxCell id="DOF8AfZ6k_UKIpgoAxyM-35" value="Personal Info Summary" style="text;html=1;resizable=0;autosize=1;align=left;verticalAlign=middle;points=[];fillColor=none;strokeColor=none;rounded=0;shadow=0;labelBackgroundColor=none;fontSize=11;" vertex="1" parent="DOF8AfZ6k_UKIpgoAxyM-45">
          <mxGeometry x="9.84126984126984" y="83" width="125" height="17" as="geometry" />
        </mxCell>
        <mxCell id="DOF8AfZ6k_UKIpgoAxyM-36" value="Income Summary" style="text;html=1;resizable=0;autosize=1;align=left;verticalAlign=middle;points=[];fillColor=none;strokeColor=none;rounded=0;shadow=0;labelBackgroundColor=none;fontSize=11;" vertex="1" parent="DOF8AfZ6k_UKIpgoAxyM-45">
          <mxGeometry x="9.84126984126984" y="104" width="96" height="17" as="geometry" />
        </mxCell>
        <mxCell id="DOF8AfZ6k_UKIpgoAxyM-37" value="Income Summary" style="text;html=1;resizable=0;autosize=1;align=left;verticalAlign=middle;points=[];fillColor=none;strokeColor=none;rounded=0;shadow=0;labelBackgroundColor=none;fontSize=11;" vertex="1" parent="DOF8AfZ6k_UKIpgoAxyM-45">
          <mxGeometry x="9.84126984126984" y="128" width="96" height="17" as="geometry" />
        </mxCell>
        <mxCell id="DOF8AfZ6k_UKIpgoAxyM-38" value="" style="shape=crossbar;whiteSpace=wrap;html=1;rounded=1;shadow=0;labelBackgroundColor=none;strokeColor=#B3B3B3;strokeWidth=1;fillColor=#999999;gradientColor=none;fontSize=11;fontColor=#000000;align=left;" vertex="1" parent="DOF8AfZ6k_UKIpgoAxyM-45">
          <mxGeometry x="159.42857142857142" y="42" width="522.5714285714284" height="10" as="geometry" />
        </mxCell>
        <mxCell id="DOF8AfZ6k_UKIpgoAxyM-39" value="100%" style="text;html=1;resizable=0;autosize=1;align=center;verticalAlign=middle;points=[];fillColor=none;strokeColor=none;rounded=0;shadow=0;labelBackgroundColor=none;fontSize=11;fontColor=#4D4D4D;" vertex="1" parent="DOF8AfZ6k_UKIpgoAxyM-45">
          <mxGeometry x="401.52380952380946" y="25" width="38" height="17" as="geometry" />
        </mxCell>
        <mxCell id="DOF8AfZ6k_UKIpgoAxyM-40" value="70%" style="text;html=1;resizable=0;autosize=1;align=center;verticalAlign=middle;points=[];fillColor=none;strokeColor=none;rounded=0;shadow=0;labelBackgroundColor=none;fontSize=11;fontColor=#4D4D4D;" vertex="1" parent="DOF8AfZ6k_UKIpgoAxyM-45">
          <mxGeometry x="404.4761904761904" y="250" width="32" height="17" as="geometry" />
        </mxCell>
        <mxCell id="DOF8AfZ6k_UKIpgoAxyM-41" value="" style="shape=crossbar;whiteSpace=wrap;html=1;rounded=1;shadow=0;labelBackgroundColor=none;strokeColor=#B3B3B3;strokeWidth=1;fillColor=#999999;gradientColor=none;fontSize=11;fontColor=#000000;align=left;" vertex="1" parent="DOF8AfZ6k_UKIpgoAxyM-45">
          <mxGeometry x="255.87301587301585" y="240" width="331.6507936507937" height="10" as="geometry" />
        </mxCell>
        <mxCell id="DOF8AfZ6k_UKIpgoAxyM-48" value="" style="group" vertex="1" connectable="0" parent="DOF8AfZ6k_UKIpgoAxyM-2">
          <mxGeometry x="389" y="1005" width="149.58999999999992" height="30" as="geometry" />
        </mxCell>
        <mxCell id="DOF8AfZ6k_UKIpgoAxyM-22" value="Data to Date" style="rounded=1;whiteSpace=wrap;html=1;shadow=0;labelBackgroundColor=none;strokeColor=#000000;strokeWidth=1;fillColor=#ffffff;gradientColor=none;fontSize=11;align=center;" vertex="1" parent="DOF8AfZ6k_UKIpgoAxyM-48">
          <mxGeometry width="70.59" height="30" as="geometry" />
        </mxCell>
        <mxCell id="DOF8AfZ6k_UKIpgoAxyM-23" value="Day to Day" style="rounded=1;whiteSpace=wrap;html=1;shadow=0;labelBackgroundColor=none;strokeColor=#000000;strokeWidth=1;fillColor=#ffffff;gradientColor=none;fontSize=11;align=center;" vertex="1" parent="DOF8AfZ6k_UKIpgoAxyM-48">
          <mxGeometry x="79" width="70.59" height="30" as="geometry" />
        </mxCell>
        <mxCell id="DOF8AfZ6k_UKIpgoAxyM-50" value="" style="group" vertex="1" connectable="0" parent="DOF8AfZ6k_UKIpgoAxyM-2">
          <mxGeometry x="389" y="1054" width="100" height="200" as="geometry" />
        </mxCell>
        <mxCell id="DOF8AfZ6k_UKIpgoAxyM-4" value="" style="group" vertex="1" connectable="0" parent="DOF8AfZ6k_UKIpgoAxyM-50">
          <mxGeometry width="100" height="40" as="geometry" />
        </mxCell>
        <mxCell id="DOF8AfZ6k_UKIpgoAxyM-5" value="Tenure" style="text;html=1;strokeColor=none;fillColor=none;align=left;verticalAlign=middle;whiteSpace=wrap;rounded=0;shadow=0;labelBackgroundColor=none;fontSize=11;" vertex="1" parent="DOF8AfZ6k_UKIpgoAxyM-4">
          <mxGeometry width="40" height="20" as="geometry" />
        </mxCell>
        <mxCell id="DOF8AfZ6k_UKIpgoAxyM-6" value="All" style="strokeWidth=1;shadow=0;dashed=0;align=center;html=1;shape=mxgraph.mockup.text.textBox;fontColor=#666666;align=left;fontSize=11;spacingLeft=4;spacingTop=-3;strokeColor=#666666;mainText=;labelBackgroundColor=none;fillColor=#ffffff;gradientColor=none;" vertex="1" parent="DOF8AfZ6k_UKIpgoAxyM-4">
          <mxGeometry y="20" width="100" height="20" as="geometry" />
        </mxCell>
        <mxCell id="DOF8AfZ6k_UKIpgoAxyM-7" value="" style="shape=stencil(hVnZctxGDPyafUXNfTw7zn+4ynKkiiK5ZDnH36cnm+FymsvW21pGcwgM0GiAl/jpx+OX7w+X4H68v73+/vDX09f3x0v85RLC08vjw9vTO35d4udL/PTt9e3ht7fXny9fr//+/mVYjl9/vP45nvD3FefMuQEK7p/rH6r5+N8ffr2aPz+9LOapkHkP5+beSl3Mu1V/bh756T5YyOf26WAfrfRz+2IhrfbFYjm3bxbX1/fdkoiOd5bbAghhRuA+IFgLKyBbV4BkfXUBIf3/Bu8DirW+AKK3pgDNSlwByWI7ByAnAgGKVZEUIytWp2OzKl4JQWyr08lZEXmBxHAECFZFYiDqYb24lM2rVyqW17pJ1XISgDpdnICM0lNRapwaOVhSgG4tr4Akky86q2t65zIfcR/gOb0zLk7UT0T5rj4UZ1ERQJjP2wB+puN9QJzP2wBRhhWAvjpdkmUVpcTJV4olFaVsjXxollWUCr9SRXqL5EO5uLXiarCsXgkcQbSNmhZhRX0xALykmNhzxdUqqRKAvl5cbZI1UMFlTe+KZiIqLsXJ7RPQkPDqlZL51YfmZXcDR7jVhxYtiPROhS+uJclLaevGG6DIbE3Nwkr3rUnWSOhoK6CjREXygba4pwfzIjWyn9e0AaLsQOA56kA96xPiTLUNgBIVqQFidORDnVLiDJApSm1S2xmgZwZU0UUzXKQTunkNIHECgHQ6Ww4MUG0XgFIYoMQJANSBvHNSnaDh+MMRVR2xpf8OEJXX1Vzji1DaAYCyFjVyo6ncaAcfqna6TRG8S1ennO6sW1EQTuVGP5RcmiLtvjB2s8B2NZqFDwCQ/umbSDsDkJwBIAgf0Pg5rF42CAByZIATFwdAJ4CTXbFAgBHfd8uC7wHoa5TAxlk5HbmoW51FeAagsKJBqAKC2gnUFbMUfQBUOiHNM+8D8uGEKHUoAJ0AeuyDAKMCak47Xec17bSDatRQbKQdIGeySo3OTkMwKb6HxPMrL0GSKdaoSOa1QVQdpXpI7yErRYnieWU9YXilTohTWmwAUKW4B7hITQ5XGdUJB4WFdFTaAYC2hrVoSVbLFGD7iUOdgIKkE9DjlA9tDoa7qSkL0YfcjOvFoSd5cXHIfkqN0YlFiQLQ1rBmPQRBCCea/KK8OFSwp3E3yMVSOyQfhGYXFzek9kqVkLJq+QMAbxGaHFHAc5TeQ44rpxMTWcpSOoB6aYGFGUTNNADQ+gdTThE0g24QabERdJQO9YBJTXErGlRYpQOGx6qiVFmcYDzNKlsbn4ABWNZDmxyx20jJEzpHCVO/okoA6B7G5kKwBpQFjVnRyYsb2mUlgdBkFwWAelwocrbs23C72z0qGXoTbBsgzk3eGYCmpgAFpaIUeHUS/JRc9wGRB7ngJLcCQD74PtvkGSAddsBRRSnyos83WUAAEGsA4JXTaQ7oG6BKMgaABjlf5EZqjBdravis0zszVfo0W8wZgHSrj3NRfR9QmAR80BdXeMvskfCq4srhHrycwDHmhbXixv5f1UPlKH2Qe3WS0M1eTfhjUOXnO2Xf+ONPm7PvmT0vyHSADsuoKmUJ7BOt+CyqnGg8qm9XeGbP22WpemBP306K7Du9M2dn2UXGhqeQvdLbsCfySlPtntlH6uVyF9gPu8Co87NPpXyzl/TeWeMFOS6MXRC1A90NOstaLyXksCdu/yg+NFE5ufMY9pns1ZZxty27AdaZED9uX3KvH4G3/zv7xIv5mtTN0ArqM2me3WG/elFbiI9PWF7829PzM708fvAna/zp+rk7fv4X);fillColor=none;shadow=0;labelBackgroundColor=none;strokeColor=#000000;strokeWidth=1;fontSize=11;align=left;" vertex="1" parent="DOF8AfZ6k_UKIpgoAxyM-4">
          <mxGeometry x="82" y="27" width="9" height="5" as="geometry" />
        </mxCell>
        <mxCell id="DOF8AfZ6k_UKIpgoAxyM-8" value="" style="group" vertex="1" connectable="0" parent="DOF8AfZ6k_UKIpgoAxyM-50">
          <mxGeometry y="53" width="100" height="40" as="geometry" />
        </mxCell>
        <mxCell id="DOF8AfZ6k_UKIpgoAxyM-9" value="Product" style="text;html=1;strokeColor=none;fillColor=none;align=left;verticalAlign=middle;whiteSpace=wrap;rounded=0;shadow=0;labelBackgroundColor=none;fontSize=11;" vertex="1" parent="DOF8AfZ6k_UKIpgoAxyM-8">
          <mxGeometry width="40" height="20" as="geometry" />
        </mxCell>
        <mxCell id="DOF8AfZ6k_UKIpgoAxyM-10" value="All" style="strokeWidth=1;shadow=0;dashed=0;align=center;html=1;shape=mxgraph.mockup.text.textBox;fontColor=#666666;align=left;fontSize=11;spacingLeft=4;spacingTop=-3;strokeColor=#666666;mainText=;labelBackgroundColor=none;fillColor=#ffffff;gradientColor=none;" vertex="1" parent="DOF8AfZ6k_UKIpgoAxyM-8">
          <mxGeometry y="20" width="100" height="20" as="geometry" />
        </mxCell>
        <mxCell id="DOF8AfZ6k_UKIpgoAxyM-11" value="" style="shape=stencil(hVnZctxGDPyafUXNfTw7zn+4ynKkiiK5ZDnH36cnm+FymsvW21pGcwgM0GiAl/jpx+OX7w+X4H68v73+/vDX09f3x0v85RLC08vjw9vTO35d4udL/PTt9e3ht7fXny9fr//+/mVYjl9/vP45nvD3FefMuQEK7p/rH6r5+N8ffr2aPz+9LOapkHkP5+beSl3Mu1V/bh756T5YyOf26WAfrfRz+2IhrfbFYjm3bxbX1/fdkoiOd5bbAghhRuA+IFgLKyBbV4BkfXUBIf3/Bu8DirW+AKK3pgDNSlwByWI7ByAnAgGKVZEUIytWp2OzKl4JQWyr08lZEXmBxHAECFZFYiDqYb24lM2rVyqW17pJ1XISgDpdnICM0lNRapwaOVhSgG4tr4Akky86q2t65zIfcR/gOb0zLk7UT0T5rj4UZ1ERQJjP2wB+puN9QJzP2wBRhhWAvjpdkmUVpcTJV4olFaVsjXxollWUCr9SRXqL5EO5uLXiarCsXgkcQbSNmhZhRX0xALykmNhzxdUqqRKAvl5cbZI1UMFlTe+KZiIqLsXJ7RPQkPDqlZL51YfmZXcDR7jVhxYtiPROhS+uJclLaevGG6DIbE3Nwkr3rUnWSOhoK6CjREXygba4pwfzIjWyn9e0AaLsQOA56kA96xPiTLUNgBIVqQFidORDnVLiDJApSm1S2xmgZwZU0UUzXKQTunkNIHECgHQ6Ww4MUG0XgFIYoMQJANSBvHNSnaDh+MMRVR2xpf8OEJXX1Vzji1DaAYCyFjVyo6ncaAcfqna6TRG8S1ennO6sW1EQTuVGP5RcmiLtvjB2s8B2NZqFDwCQ/umbSDsDkJwBIAgf0Pg5rF42CAByZIATFwdAJ4CTXbFAgBHfd8uC7wHoa5TAxlk5HbmoW51FeAagsKJBqAKC2gnUFbMUfQBUOiHNM+8D8uGEKHUoAJ0AeuyDAKMCak47Xec17bSDatRQbKQdIGeySo3OTkMwKb6HxPMrL0GSKdaoSOa1QVQdpXpI7yErRYnieWU9YXilTohTWmwAUKW4B7hITQ5XGdUJB4WFdFTaAYC2hrVoSVbLFGD7iUOdgIKkE9DjlA9tDoa7qSkL0YfcjOvFoSd5cXHIfkqN0YlFiQLQ1rBmPQRBCCea/KK8OFSwp3E3yMVSOyQfhGYXFzek9kqVkLJq+QMAbxGaHFHAc5TeQ44rpxMTWcpSOoB6aYGFGUTNNADQ+gdTThE0g24QabERdJQO9YBJTXErGlRYpQOGx6qiVFmcYDzNKlsbn4ABWNZDmxyx20jJEzpHCVO/okoA6B7G5kKwBpQFjVnRyYsb2mUlgdBkFwWAelwocrbs23C72z0qGXoTbBsgzk3eGYCmpgAFpaIUeHUS/JRc9wGRB7ngJLcCQD74PtvkGSAddsBRRSnyos83WUAAEGsA4JXTaQ7oG6BKMgaABjlf5EZqjBdravis0zszVfo0W8wZgHSrj3NRfR9QmAR80BdXeMvskfCq4srhHrycwDHmhbXixv5f1UPlKH2Qe3WS0M1eTfhjUOXnO2Xf+ONPm7PvmT0vyHSADsuoKmUJ7BOt+CyqnGg8qm9XeGbP22WpemBP306K7Du9M2dn2UXGhqeQvdLbsCfySlPtntlH6uVyF9gPu8Co87NPpXyzl/TeWeMFOS6MXRC1A90NOstaLyXksCdu/yg+NFE5ufMY9pns1ZZxty27AdaZED9uX3KvH4G3/zv7xIv5mtTN0ArqM2me3WG/elFbiI9PWF7829PzM708fvAna/zp+rk7fv4X);fillColor=none;shadow=0;labelBackgroundColor=none;strokeColor=#000000;strokeWidth=1;fontSize=11;align=left;" vertex="1" parent="DOF8AfZ6k_UKIpgoAxyM-8">
          <mxGeometry x="82" y="27" width="9" height="5" as="geometry" />
        </mxCell>
        <mxCell id="DOF8AfZ6k_UKIpgoAxyM-12" value="" style="group" vertex="1" connectable="0" parent="DOF8AfZ6k_UKIpgoAxyM-50">
          <mxGeometry y="107" width="100" height="40" as="geometry" />
        </mxCell>
        <mxCell id="DOF8AfZ6k_UKIpgoAxyM-13" value="First Product" style="text;html=1;strokeColor=none;fillColor=none;align=left;verticalAlign=middle;whiteSpace=wrap;rounded=0;shadow=0;labelBackgroundColor=none;fontSize=11;" vertex="1" parent="DOF8AfZ6k_UKIpgoAxyM-12">
          <mxGeometry width="82" height="20" as="geometry" />
        </mxCell>
        <mxCell id="DOF8AfZ6k_UKIpgoAxyM-14" value="All" style="strokeWidth=1;shadow=0;dashed=0;align=center;html=1;shape=mxgraph.mockup.text.textBox;fontColor=#666666;align=left;fontSize=11;spacingLeft=4;spacingTop=-3;strokeColor=#666666;mainText=;labelBackgroundColor=none;fillColor=#ffffff;gradientColor=none;" vertex="1" parent="DOF8AfZ6k_UKIpgoAxyM-12">
          <mxGeometry y="20" width="100" height="20" as="geometry" />
        </mxCell>
        <mxCell id="DOF8AfZ6k_UKIpgoAxyM-15" value="" style="shape=stencil(hVnZctxGDPyafUXNfTw7zn+4ynKkiiK5ZDnH36cnm+FymsvW21pGcwgM0GiAl/jpx+OX7w+X4H68v73+/vDX09f3x0v85RLC08vjw9vTO35d4udL/PTt9e3ht7fXny9fr//+/mVYjl9/vP45nvD3FefMuQEK7p/rH6r5+N8ffr2aPz+9LOapkHkP5+beSl3Mu1V/bh756T5YyOf26WAfrfRz+2IhrfbFYjm3bxbX1/fdkoiOd5bbAghhRuA+IFgLKyBbV4BkfXUBIf3/Bu8DirW+AKK3pgDNSlwByWI7ByAnAgGKVZEUIytWp2OzKl4JQWyr08lZEXmBxHAECFZFYiDqYb24lM2rVyqW17pJ1XISgDpdnICM0lNRapwaOVhSgG4tr4Akky86q2t65zIfcR/gOb0zLk7UT0T5rj4UZ1ERQJjP2wB+puN9QJzP2wBRhhWAvjpdkmUVpcTJV4olFaVsjXxollWUCr9SRXqL5EO5uLXiarCsXgkcQbSNmhZhRX0xALykmNhzxdUqqRKAvl5cbZI1UMFlTe+KZiIqLsXJ7RPQkPDqlZL51YfmZXcDR7jVhxYtiPROhS+uJclLaevGG6DIbE3Nwkr3rUnWSOhoK6CjREXygba4pwfzIjWyn9e0AaLsQOA56kA96xPiTLUNgBIVqQFidORDnVLiDJApSm1S2xmgZwZU0UUzXKQTunkNIHECgHQ6Ww4MUG0XgFIYoMQJANSBvHNSnaDh+MMRVR2xpf8OEJXX1Vzji1DaAYCyFjVyo6ncaAcfqna6TRG8S1ennO6sW1EQTuVGP5RcmiLtvjB2s8B2NZqFDwCQ/umbSDsDkJwBIAgf0Pg5rF42CAByZIATFwdAJ4CTXbFAgBHfd8uC7wHoa5TAxlk5HbmoW51FeAagsKJBqAKC2gnUFbMUfQBUOiHNM+8D8uGEKHUoAJ0AeuyDAKMCak47Xec17bSDatRQbKQdIGeySo3OTkMwKb6HxPMrL0GSKdaoSOa1QVQdpXpI7yErRYnieWU9YXilTohTWmwAUKW4B7hITQ5XGdUJB4WFdFTaAYC2hrVoSVbLFGD7iUOdgIKkE9DjlA9tDoa7qSkL0YfcjOvFoSd5cXHIfkqN0YlFiQLQ1rBmPQRBCCea/KK8OFSwp3E3yMVSOyQfhGYXFzek9kqVkLJq+QMAbxGaHFHAc5TeQ44rpxMTWcpSOoB6aYGFGUTNNADQ+gdTThE0g24QabERdJQO9YBJTXErGlRYpQOGx6qiVFmcYDzNKlsbn4ABWNZDmxyx20jJEzpHCVO/okoA6B7G5kKwBpQFjVnRyYsb2mUlgdBkFwWAelwocrbs23C72z0qGXoTbBsgzk3eGYCmpgAFpaIUeHUS/JRc9wGRB7ngJLcCQD74PtvkGSAddsBRRSnyos83WUAAEGsA4JXTaQ7oG6BKMgaABjlf5EZqjBdravis0zszVfo0W8wZgHSrj3NRfR9QmAR80BdXeMvskfCq4srhHrycwDHmhbXixv5f1UPlKH2Qe3WS0M1eTfhjUOXnO2Xf+ONPm7PvmT0vyHSADsuoKmUJ7BOt+CyqnGg8qm9XeGbP22WpemBP306K7Du9M2dn2UXGhqeQvdLbsCfySlPtntlH6uVyF9gPu8Co87NPpXyzl/TeWeMFOS6MXRC1A90NOstaLyXksCdu/yg+NFE5ufMY9pns1ZZxty27AdaZED9uX3KvH4G3/zv7xIv5mtTN0ArqM2me3WG/elFbiI9PWF7829PzM708fvAna/zp+rk7fv4X);fillColor=none;shadow=0;labelBackgroundColor=none;strokeColor=#000000;strokeWidth=1;fontSize=11;align=left;" vertex="1" parent="DOF8AfZ6k_UKIpgoAxyM-12">
          <mxGeometry x="82" y="27" width="9" height="5" as="geometry" />
        </mxCell>
        <mxCell id="DOF8AfZ6k_UKIpgoAxyM-16" value="" style="group" vertex="1" connectable="0" parent="DOF8AfZ6k_UKIpgoAxyM-50">
          <mxGeometry y="160" width="100" height="40" as="geometry" />
        </mxCell>
        <mxCell id="DOF8AfZ6k_UKIpgoAxyM-17" value="Platform" style="text;html=1;strokeColor=none;fillColor=none;align=left;verticalAlign=middle;whiteSpace=wrap;rounded=0;shadow=0;labelBackgroundColor=none;fontSize=11;" vertex="1" parent="DOF8AfZ6k_UKIpgoAxyM-16">
          <mxGeometry width="78" height="20" as="geometry" />
        </mxCell>
        <mxCell id="DOF8AfZ6k_UKIpgoAxyM-18" value="All" style="strokeWidth=1;shadow=0;dashed=0;align=center;html=1;shape=mxgraph.mockup.text.textBox;fontColor=#666666;align=left;fontSize=11;spacingLeft=4;spacingTop=-3;strokeColor=#666666;mainText=;labelBackgroundColor=none;fillColor=#ffffff;gradientColor=none;" vertex="1" parent="DOF8AfZ6k_UKIpgoAxyM-16">
          <mxGeometry y="20" width="100" height="20" as="geometry" />
        </mxCell>
        <mxCell id="DOF8AfZ6k_UKIpgoAxyM-19" value="" style="shape=stencil(hVnZctxGDPyafUXNfTw7zn+4ynKkiiK5ZDnH36cnm+FymsvW21pGcwgM0GiAl/jpx+OX7w+X4H68v73+/vDX09f3x0v85RLC08vjw9vTO35d4udL/PTt9e3ht7fXny9fr//+/mVYjl9/vP45nvD3FefMuQEK7p/rH6r5+N8ffr2aPz+9LOapkHkP5+beSl3Mu1V/bh756T5YyOf26WAfrfRz+2IhrfbFYjm3bxbX1/fdkoiOd5bbAghhRuA+IFgLKyBbV4BkfXUBIf3/Bu8DirW+AKK3pgDNSlwByWI7ByAnAgGKVZEUIytWp2OzKl4JQWyr08lZEXmBxHAECFZFYiDqYb24lM2rVyqW17pJ1XISgDpdnICM0lNRapwaOVhSgG4tr4Akky86q2t65zIfcR/gOb0zLk7UT0T5rj4UZ1ERQJjP2wB+puN9QJzP2wBRhhWAvjpdkmUVpcTJV4olFaVsjXxollWUCr9SRXqL5EO5uLXiarCsXgkcQbSNmhZhRX0xALykmNhzxdUqqRKAvl5cbZI1UMFlTe+KZiIqLsXJ7RPQkPDqlZL51YfmZXcDR7jVhxYtiPROhS+uJclLaevGG6DIbE3Nwkr3rUnWSOhoK6CjREXygba4pwfzIjWyn9e0AaLsQOA56kA96xPiTLUNgBIVqQFidORDnVLiDJApSm1S2xmgZwZU0UUzXKQTunkNIHECgHQ6Ww4MUG0XgFIYoMQJANSBvHNSnaDh+MMRVR2xpf8OEJXX1Vzji1DaAYCyFjVyo6ncaAcfqna6TRG8S1ennO6sW1EQTuVGP5RcmiLtvjB2s8B2NZqFDwCQ/umbSDsDkJwBIAgf0Pg5rF42CAByZIATFwdAJ4CTXbFAgBHfd8uC7wHoa5TAxlk5HbmoW51FeAagsKJBqAKC2gnUFbMUfQBUOiHNM+8D8uGEKHUoAJ0AeuyDAKMCak47Xec17bSDatRQbKQdIGeySo3OTkMwKb6HxPMrL0GSKdaoSOa1QVQdpXpI7yErRYnieWU9YXilTohTWmwAUKW4B7hITQ5XGdUJB4WFdFTaAYC2hrVoSVbLFGD7iUOdgIKkE9DjlA9tDoa7qSkL0YfcjOvFoSd5cXHIfkqN0YlFiQLQ1rBmPQRBCCea/KK8OFSwp3E3yMVSOyQfhGYXFzek9kqVkLJq+QMAbxGaHFHAc5TeQ44rpxMTWcpSOoB6aYGFGUTNNADQ+gdTThE0g24QabERdJQO9YBJTXErGlRYpQOGx6qiVFmcYDzNKlsbn4ABWNZDmxyx20jJEzpHCVO/okoA6B7G5kKwBpQFjVnRyYsb2mUlgdBkFwWAelwocrbs23C72z0qGXoTbBsgzk3eGYCmpgAFpaIUeHUS/JRc9wGRB7ngJLcCQD74PtvkGSAddsBRRSnyos83WUAAEGsA4JXTaQ7oG6BKMgaABjlf5EZqjBdravis0zszVfo0W8wZgHSrj3NRfR9QmAR80BdXeMvskfCq4srhHrycwDHmhbXixv5f1UPlKH2Qe3WS0M1eTfhjUOXnO2Xf+ONPm7PvmT0vyHSADsuoKmUJ7BOt+CyqnGg8qm9XeGbP22WpemBP306K7Du9M2dn2UXGhqeQvdLbsCfySlPtntlH6uVyF9gPu8Co87NPpXyzl/TeWeMFOS6MXRC1A90NOstaLyXksCdu/yg+NFE5ufMY9pns1ZZxty27AdaZED9uX3KvH4G3/zv7xIv5mtTN0ArqM2me3WG/elFbiI9PWF7829PzM708fvAna/zp+rk7fv4X);fillColor=none;shadow=0;labelBackgroundColor=none;strokeColor=#000000;strokeWidth=1;fontSize=11;align=left;" vertex="1" parent="DOF8AfZ6k_UKIpgoAxyM-16">
          <mxGeometry x="82" y="27" width="9" height="5" as="geometry" />
        </mxCell>
        <mxCell id="DOF8AfZ6k_UKIpgoAxyM-54" value="" style="group" vertex="1" connectable="0" parent="DOF8AfZ6k_UKIpgoAxyM-2">
          <mxGeometry x="389" y="965" width="175" height="20" as="geometry" />
        </mxCell>
        <mxCell id="DOF8AfZ6k_UKIpgoAxyM-55" value="04/27/2020" style="strokeWidth=1;shadow=0;dashed=0;align=center;html=1;shape=mxgraph.mockup.text.textBox;fontColor=#666666;align=left;fontSize=11;spacingLeft=4;spacingTop=-3;strokeColor=#666666;mainText=;labelBackgroundColor=none;fillColor=#ffffff;gradientColor=none;" vertex="1" parent="DOF8AfZ6k_UKIpgoAxyM-54">
          <mxGeometry x="93" width="82" height="20" as="geometry" />
        </mxCell>
        <mxCell id="DOF8AfZ6k_UKIpgoAxyM-56" value="04/27/2019" style="strokeWidth=1;shadow=0;dashed=0;align=center;html=1;shape=mxgraph.mockup.text.textBox;fontColor=#666666;align=left;fontSize=11;spacingLeft=4;spacingTop=-3;strokeColor=#666666;mainText=;labelBackgroundColor=none;fillColor=#ffffff;gradientColor=none;" vertex="1" parent="DOF8AfZ6k_UKIpgoAxyM-54">
          <mxGeometry width="82" height="20" as="geometry" />
        </mxCell>
      </root>
    </mxGraphModel>
  </diagram>
</mxfile>
